<svg width="186" height="61" viewBox="0 0 186 61" fill="none" xmlns="http://www.w3.org/2000/svg">
<path d="M12.1863 60.3094C11.7084 60.3094 11.2421 60.3032 10.7679 60.2926C9.78564 60.2798 8.80569 60.1943 7.83606 60.0367C6.93194 59.881 6.05608 59.5914 5.23739 59.1773C4.4262 58.7667 3.68634 58.2283 3.04613 57.5828C2.39666 56.9448 1.85595 56.2049 1.44542 55.3923C1.03036 54.5744 0.743121 53.6978 0.593697 52.7929C0.432332 51.8206 0.345026 50.8374 0.332534 49.8519C0.322589 49.5211 0.30957 48.4196 0.30957 48.4196V12.1854C0.30957 12.1854 0.323436 11.1008 0.332612 10.7822C0.344574 9.79825 0.431371 8.81661 0.592254 7.8458C0.741954 6.93843 1.02942 6.05926 1.4447 5.23872C1.85372 4.42671 2.39143 3.68622 3.03699 3.04597C3.68182 2.39964 4.42406 1.85846 5.23662 1.44218C6.05343 1.02947 6.92763 0.741862 7.82993 0.588988C8.80274 0.429884 9.7861 0.343865 10.7718 0.331652L12.1871 0.3125H173.384L174.816 0.332421C175.793 0.344027 176.768 0.429278 177.731 0.58745C178.643 0.742242 179.526 1.03186 180.352 1.44678C181.98 2.28571 183.305 3.61298 184.14 5.24255C184.549 6.05742 184.832 6.92942 184.98 7.82895C185.143 8.80773 185.234 9.79708 185.252 10.7891C185.257 11.2333 185.257 11.7105 185.257 12.1854C185.269 12.7736 185.269 13.3334 185.269 13.8979V46.7254C185.269 47.2953 185.269 47.8513 185.257 48.4119C185.257 48.922 185.257 49.3893 185.251 49.8702C185.233 50.8446 185.143 51.8163 184.983 52.7775C184.836 53.6889 184.551 54.5724 184.136 55.397C183.722 56.2007 183.185 56.9343 182.543 57.5705C181.902 58.2196 181.161 58.7611 180.348 59.1744C179.524 59.5916 178.642 59.8823 177.731 60.0367C176.762 60.1951 175.782 60.2806 174.8 60.2926C174.34 60.3032 173.859 60.3094 173.392 60.3094L171.692 60.3125L12.1863 60.3094Z" fill="black"/>
<path d="M37.7933 30.7826C37.8101 29.4734 38.1579 28.1898 38.8042 27.0511C39.4504 25.9124 40.3743 24.9557 41.4896 24.2699C40.7811 23.258 39.8463 22.4252 38.7596 21.8377C37.6728 21.2502 36.4641 20.9242 35.2293 20.8855C32.5954 20.609 30.0418 22.4616 28.6996 22.4616C27.3314 22.4616 25.2649 20.913 23.0395 20.9588C21.6001 21.0053 20.1973 21.4238 18.9677 22.1737C17.7382 22.9235 16.7239 23.9791 16.0235 25.2375C12.99 30.4897 15.2527 38.2086 18.1587 42.454C19.6125 44.5329 21.3117 46.855 23.535 46.7727C25.7107 46.6825 26.5233 45.3853 29.1495 45.3853C31.7513 45.3853 32.5137 46.7727 34.7821 46.7203C37.1167 46.6824 38.5876 44.6322 39.9905 42.5337C41.0351 41.0524 41.839 39.4153 42.3722 37.6829C41.0159 37.1093 39.8584 36.149 39.0442 34.922C38.2299 33.6949 37.7948 32.2553 37.7933 30.7826Z" fill="white"/>
<path d="M33.5094 18.0934C34.7823 16.5653 35.4094 14.6012 35.2575 12.6182C33.3128 12.8225 31.5164 13.7519 30.2263 15.2214C29.5955 15.9393 29.1124 16.7744 28.8046 17.6791C28.4968 18.5838 28.3703 19.5403 28.4323 20.4939C29.4051 20.5039 30.3674 20.2931 31.2468 19.8773C32.1262 19.4615 32.8998 18.8515 33.5094 18.0934Z" fill="white"/>
<path d="M65.2947 41.5098H57.8701L56.0871 46.7746H52.9424L59.9748 27.2964H63.2421L70.2745 46.7746H67.0761L65.2947 41.5098ZM58.6391 39.0804H64.5243L61.6231 30.5361H61.5419L58.6391 39.0804Z" fill="white"/>
<path d="M85.4611 39.6748C85.4611 44.0878 83.0991 46.9232 79.5346 46.9232C78.6317 46.9704 77.7337 46.7624 76.9435 46.323C76.1532 45.8836 75.5027 45.2305 75.0664 44.4386H74.999V51.4725H72.084V32.5734H74.9056V34.9354H74.9592C75.4156 34.1473 76.0771 33.4976 76.8733 33.0555C77.6695 32.6134 78.5707 32.3955 79.481 32.4248C83.0852 32.4248 85.4611 35.2739 85.4611 39.6748ZM82.4649 39.6748C82.4649 36.7996 80.9791 34.9094 78.712 34.9094C76.4848 34.9094 74.9867 36.8394 74.9867 39.6748C74.9867 42.5361 76.4848 44.4524 78.712 44.4524C80.9791 44.4524 82.4649 42.576 82.4649 39.6748Z" fill="white"/>
<path d="M101.093 39.6748C101.093 44.0878 98.7309 46.9231 95.1665 46.9231C94.2635 46.9704 93.3655 46.7624 92.5753 46.323C91.7851 45.8836 91.1346 45.2305 90.6983 44.4386H90.6308V51.4725H87.7158V32.5734H90.5374V34.9354H90.591C91.0473 34.1473 91.7088 33.4976 92.5051 33.0555C93.3013 32.6134 94.2025 32.3955 95.1128 32.4248C98.7171 32.4248 101.093 35.2739 101.093 39.6748ZM98.0968 39.6748C98.0968 36.7996 96.6109 34.9094 94.3439 34.9094C92.1167 34.9094 90.6186 36.8394 90.6186 39.6748C90.6186 42.5361 92.1167 44.4524 94.3439 44.4524C96.6109 44.4524 98.0968 42.5759 98.0968 39.6748H98.0968Z" fill="white"/>
<path d="M111.423 41.3475C111.639 43.2791 113.516 44.5473 116.08 44.5473C118.537 44.5473 120.305 43.279 120.305 41.5374C120.305 40.0255 119.239 39.1202 116.714 38.4998L114.19 37.8917C110.613 37.0278 108.953 35.3551 108.953 32.6407C108.953 29.28 111.881 26.9716 116.04 26.9716C120.156 26.9716 122.978 29.28 123.073 32.6407H120.13C119.954 30.6969 118.347 29.5236 115.999 29.5236C113.651 29.5236 112.044 30.7107 112.044 32.4386C112.044 33.8156 113.07 34.6259 115.581 35.2463L117.727 35.7732C121.723 36.7183 123.384 38.3237 123.384 41.1727C123.384 44.8168 120.481 47.0992 115.864 47.0992C111.544 47.0992 108.628 44.8704 108.439 41.3473L111.423 41.3475Z" fill="white"/>
<path d="M129.674 29.2127V32.5734H132.375V34.8818H129.674V42.7108C129.674 43.927 130.215 44.4938 131.402 44.4938C131.723 44.4882 132.043 44.4657 132.361 44.4263V46.7209C131.827 46.8207 131.285 46.8658 130.742 46.8557C127.867 46.8557 126.745 45.7758 126.745 43.0217V34.8818H124.681V32.5734H126.745V29.2127H129.674Z" fill="white"/>
<path d="M133.938 39.6748C133.938 35.2066 136.57 32.3988 140.674 32.3988C144.791 32.3988 147.411 35.2065 147.411 39.6748C147.411 44.1552 144.805 46.9507 140.674 46.9507C136.544 46.9507 133.938 44.1552 133.938 39.6748ZM144.44 39.6748C144.44 36.6097 143.036 34.8006 140.674 34.8006C138.312 34.8006 136.909 36.6235 136.909 39.6748C136.909 42.7521 138.312 44.5474 140.674 44.5474C143.036 44.5474 144.44 42.7521 144.44 39.6748H144.44Z" fill="white"/>
<path d="M149.814 32.5734H152.595V34.9905H152.662C152.85 34.2356 153.292 33.5685 153.915 33.1012C154.537 32.634 155.301 32.3951 156.078 32.4248C156.414 32.4236 156.749 32.4601 157.077 32.5336V35.2601C156.653 35.1305 156.21 35.071 155.767 35.084C155.343 35.0668 154.921 35.1415 154.529 35.3029C154.138 35.4642 153.785 35.7085 153.497 36.0189C153.208 36.3293 152.99 36.6985 152.858 37.1011C152.725 37.5037 152.681 37.9302 152.729 38.3513V46.7745H149.814L149.814 32.5734Z" fill="white"/>
<path d="M170.515 42.6035C170.123 45.1815 167.613 46.9507 164.4 46.9507C160.269 46.9507 157.705 44.1828 157.705 39.7422C157.705 35.2877 160.283 32.3988 164.278 32.3988C168.207 32.3988 170.678 35.0978 170.678 39.4036V40.4024H160.648V40.5785C160.601 41.1012 160.667 41.6277 160.84 42.1231C161.012 42.6185 161.289 43.0715 161.65 43.4519C162.011 43.8323 162.449 44.1316 162.935 44.3297C163.421 44.5278 163.944 44.6203 164.468 44.601C165.157 44.6655 165.848 44.506 166.439 44.1461C167.03 43.7862 167.489 43.2452 167.747 42.6035L170.515 42.6035ZM160.661 38.3651H167.761C167.787 37.8952 167.716 37.4249 167.552 36.9838C167.388 36.5427 167.134 36.1403 166.807 35.8019C166.48 35.4635 166.087 35.1963 165.651 35.0171C165.216 34.838 164.749 34.7507 164.278 34.7608C163.803 34.758 163.333 34.8492 162.893 35.0292C162.454 35.2091 162.055 35.4743 161.719 35.8094C161.382 36.1445 161.116 36.5429 160.934 36.9815C160.753 37.4202 160.66 37.8904 160.661 38.3651V38.3651Z" fill="white"/>
<path d="M58.2752 12.635C58.8863 12.5912 59.4995 12.6835 60.0707 12.9054C60.6418 13.1272 61.1566 13.473 61.5779 13.9179C61.9991 14.3628 62.3164 14.8956 62.5069 15.478C62.6973 16.0603 62.7561 16.6777 62.679 17.2855C62.679 20.2756 61.063 21.9943 58.2752 21.9943H54.8945V12.635H58.2752ZM56.3482 20.6707H58.1128C58.5495 20.6968 58.9865 20.6252 59.392 20.4611C59.7976 20.297 60.1614 20.0446 60.4571 19.7221C60.7527 19.3997 60.9728 19.0154 61.1012 18.5972C61.2296 18.179 61.2631 17.7374 61.1993 17.3046C61.2585 16.8735 61.2215 16.4347 61.0912 16.0195C60.9608 15.6044 60.7402 15.2232 60.4452 14.9034C60.1502 14.5835 59.7881 14.3328 59.3849 14.1693C58.9817 14.0058 58.5473 13.9335 58.1128 13.9577H56.3482V20.6707Z" fill="white"/>
<path d="M64.3204 18.4596C64.276 17.9954 64.3291 17.5271 64.4763 17.0847C64.6235 16.6422 64.8616 16.2354 65.1752 15.8904C65.4888 15.5453 65.8711 15.2696 66.2975 15.081C66.7239 14.8923 67.185 14.7949 67.6513 14.7949C68.1176 14.7949 68.5787 14.8923 69.0051 15.081C69.4315 15.2696 69.8138 15.5453 70.1274 15.8904C70.4411 16.2354 70.6791 16.6422 70.8263 17.0847C70.9735 17.5271 71.0266 17.9954 70.9822 18.4596C71.0274 18.9242 70.9749 19.3932 70.8281 19.8363C70.6813 20.2795 70.4434 20.687 70.1297 21.0328C69.8161 21.3785 69.4335 21.6548 69.0067 21.8438C68.5798 22.0329 68.1181 22.1306 67.6513 22.1306C67.1845 22.1306 66.7228 22.0329 66.296 21.8438C65.8691 21.6548 65.4866 21.3785 65.1729 21.0328C64.8592 20.687 64.6213 20.2795 64.4745 19.8363C64.3277 19.3932 64.2752 18.9242 64.3204 18.4596ZM69.5484 18.4596C69.5484 16.9286 68.8606 16.0332 67.6536 16.0332C66.442 16.0332 65.7604 16.9286 65.7604 18.4596C65.7604 20.0029 66.442 20.8913 67.6536 20.8913C68.8607 20.8913 69.5484 19.9967 69.5484 18.4596H69.5484Z" fill="white"/>
<path d="M79.8371 21.9941H78.3911L76.9313 16.7922H76.8211L75.3674 21.9941H73.9352L71.9883 14.9311H73.4021L74.6674 20.3206H74.7715L76.2237 14.9311H77.5609L79.013 20.3206H79.1233L80.3824 14.9311H81.7764L79.8371 21.9941Z" fill="white"/>
<path d="M83.4151 14.931H84.7569V16.0531H84.861C85.0378 15.6501 85.3358 15.3123 85.7136 15.0867C86.0914 14.8611 86.5302 14.7591 86.9688 14.7947C87.3125 14.7689 87.6575 14.8207 87.9785 14.9463C88.2994 15.072 88.5879 15.2682 88.8227 15.5205C89.0575 15.7728 89.2325 16.0746 89.3348 16.4038C89.437 16.7329 89.4639 17.0808 89.4135 17.4217V21.994H88.0196V17.7717C88.0196 16.6367 87.5264 16.0722 86.4955 16.0722C86.2621 16.0614 86.0292 16.1011 85.8127 16.1886C85.5961 16.2762 85.4011 16.4096 85.2409 16.5796C85.0807 16.7496 84.9591 16.9522 84.8846 17.1736C84.81 17.395 84.7842 17.6298 84.809 17.8621V21.9941H83.415L83.4151 14.931Z" fill="white"/>
<path d="M91.6338 12.1739H93.0277V21.9941H91.6338V12.1739Z" fill="white"/>
<path d="M94.9659 18.4596C94.9215 17.9954 94.9747 17.527 95.1219 17.0846C95.2691 16.6421 95.5072 16.2353 95.8209 15.8902C96.1345 15.5452 96.5168 15.2695 96.9433 15.0808C97.3697 14.8922 97.8309 14.7947 98.2972 14.7947C98.7635 14.7947 99.2246 14.8922 99.6511 15.0808C100.078 15.2695 100.46 15.5452 100.773 15.8902C101.087 16.2353 101.325 16.6421 101.472 17.0846C101.62 17.527 101.673 17.9954 101.628 18.4596C101.674 18.9242 101.621 19.3932 101.474 19.8363C101.327 20.2795 101.089 20.687 100.776 21.0327C100.462 21.3785 100.079 21.6547 99.6525 21.8438C99.2257 22.0328 98.764 22.1305 98.2972 22.1305C97.8303 22.1305 97.3686 22.0328 96.9418 21.8438C96.5149 21.6547 96.1323 21.3785 95.8186 21.0327C95.5049 20.687 95.2669 20.2795 95.1201 19.8363C94.9732 19.3932 94.9207 18.9242 94.9659 18.4596ZM100.194 18.4596C100.194 16.9285 99.5061 16.0332 98.2991 16.0332C97.0874 16.0332 96.4058 16.9285 96.4058 18.4596C96.4058 20.0028 97.0875 20.8913 98.2991 20.8913C99.5061 20.8913 100.194 19.9967 100.194 18.4596H100.194Z" fill="white"/>
<path d="M103.095 19.9967C103.095 18.7253 104.041 17.9924 105.722 17.8882L107.635 17.7779V17.1683C107.635 16.4223 107.142 16.0011 106.189 16.0011C105.411 16.0011 104.872 16.2868 104.717 16.7861H103.367C103.51 15.5729 104.651 14.7948 106.253 14.7948C108.024 14.7948 109.023 15.6763 109.023 17.1683V21.9942H107.681V21.0016H107.571C107.347 21.3576 107.032 21.6479 106.66 21.8427C106.287 22.0375 105.869 22.13 105.449 22.1105C105.153 22.1414 104.853 22.1098 104.569 22.0177C104.286 21.9256 104.025 21.7751 103.803 21.576C103.581 21.3768 103.403 21.1334 103.281 20.8614C103.16 20.5894 103.096 20.2948 103.095 19.9967ZM107.635 19.3932V18.8027L105.91 18.913C104.937 18.9781 104.496 19.3089 104.496 19.9316C104.496 20.5673 105.048 20.9372 105.806 20.9372C106.028 20.9597 106.253 20.9373 106.466 20.8713C106.679 20.8052 106.877 20.697 107.048 20.5529C107.218 20.4089 107.358 20.232 107.459 20.0327C107.56 19.8335 107.62 19.616 107.635 19.3932Z" fill="white"/>
<path d="M110.855 18.4596C110.855 16.2277 112.003 14.8139 113.787 14.8139C114.229 14.7936 114.667 14.8993 115.05 15.1187C115.434 15.3382 115.747 15.6622 115.953 16.0531H116.057V12.1739H117.451V21.9941H116.116V20.8782H116.005C115.783 21.2664 115.459 21.5864 115.068 21.8037C114.677 22.0209 114.234 22.127 113.787 22.1105C111.991 22.1106 110.855 20.6967 110.855 18.4596ZM112.295 18.4596C112.295 19.9576 113.002 20.8591 114.183 20.8591C115.357 20.8591 116.083 19.9446 116.083 18.4657C116.083 16.9936 115.35 16.0661 114.183 16.0661C113.009 16.0661 112.295 16.9737 112.295 18.4596H112.295Z" fill="white"/>
<path d="M123.218 18.4596C123.174 17.9954 123.227 17.5271 123.374 17.0847C123.521 16.6422 123.759 16.2354 124.073 15.8904C124.386 15.5453 124.769 15.2696 125.195 15.081C125.621 14.8923 126.082 14.7949 126.549 14.7949C127.015 14.7949 127.476 14.8923 127.903 15.081C128.329 15.2696 128.711 15.5453 129.025 15.8904C129.339 16.2354 129.577 16.6422 129.724 17.0847C129.871 17.5271 129.924 17.9954 129.88 18.4596C129.925 18.9242 129.872 19.3932 129.726 19.8363C129.579 20.2795 129.341 20.687 129.027 21.0328C128.714 21.3785 128.331 21.6548 127.904 21.8438C127.477 22.0329 127.016 22.1306 126.549 22.1306C126.082 22.1306 125.62 22.0329 125.193 21.8438C124.767 21.6548 124.384 21.3785 124.07 21.0328C123.757 20.687 123.519 20.2795 123.372 19.8363C123.225 19.3932 123.173 18.9242 123.218 18.4596ZM128.446 18.4596C128.446 16.9286 127.758 16.0332 126.551 16.0332C125.339 16.0332 124.658 16.9286 124.658 18.4596C124.658 20.0029 125.339 20.8913 126.551 20.8913C127.758 20.8913 128.446 19.9967 128.446 18.4596Z" fill="white"/>
<path d="M131.75 14.931H133.092V16.0531H133.196C133.373 15.6501 133.671 15.3123 134.049 15.0867C134.426 14.8611 134.865 14.7591 135.304 14.7947C135.647 14.7689 135.992 14.8207 136.313 14.9463C136.634 15.072 136.923 15.2682 137.158 15.5205C137.392 15.7728 137.567 16.0746 137.67 16.4038C137.772 16.7329 137.799 17.0808 137.748 17.4217V21.994H136.355V17.7717C136.355 16.6367 135.861 16.0722 134.83 16.0722C134.597 16.0614 134.364 16.1011 134.148 16.1886C133.931 16.2762 133.736 16.4096 133.576 16.5796C133.416 16.7496 133.294 16.9522 133.22 17.1736C133.145 17.395 133.119 17.6298 133.144 17.8621V21.9941H131.75V14.931Z" fill="white"/>
<path d="M145.625 13.1726V14.9633H147.155V16.1374H145.625V19.7693C145.625 20.5091 145.93 20.8331 146.624 20.8331C146.801 20.8325 146.979 20.8218 147.155 20.8009V21.962C146.905 22.0068 146.651 22.0306 146.397 22.0332C144.847 22.0332 144.23 21.4879 144.23 20.1262V16.1373H143.108V14.9632H144.23V13.1726H145.625Z" fill="white"/>
<path d="M149.061 12.1739H150.442V16.0661H150.552C150.738 15.6594 151.044 15.3196 151.429 15.0932C151.815 14.8668 152.261 14.7647 152.706 14.8009C153.048 14.7823 153.39 14.8393 153.707 14.968C154.024 15.0967 154.309 15.2938 154.542 15.5453C154.774 15.7968 154.948 16.0965 155.051 16.423C155.154 16.7494 155.184 17.0947 155.139 17.434V21.9941H153.743V17.7779C153.743 16.6497 153.218 16.0784 152.233 16.0784C151.993 16.0587 151.752 16.0916 151.527 16.1749C151.301 16.2581 151.097 16.3896 150.927 16.5601C150.758 16.7307 150.628 16.9362 150.546 17.1623C150.465 17.3884 150.433 17.6296 150.455 17.869V21.9941H149.061L149.061 12.1739Z" fill="white"/>
<path d="M163.266 20.0871C163.077 20.7326 162.667 21.291 162.107 21.6645C161.548 22.0381 160.875 22.203 160.206 22.1305C159.741 22.1427 159.278 22.0536 158.851 21.8693C158.423 21.6849 158.041 21.4098 157.731 21.0629C157.42 20.716 157.189 20.3058 157.053 19.8606C156.917 19.4154 156.88 18.946 156.943 18.4848C156.881 18.0223 156.919 17.5518 157.055 17.1053C157.191 16.6588 157.421 16.2466 157.73 15.8967C158.038 15.5468 158.419 15.2674 158.845 15.0772C159.271 14.8871 159.733 14.7908 160.2 14.7948C162.165 14.7948 163.351 16.1374 163.351 18.3554V18.8418H158.363V18.9199C158.341 19.1791 158.374 19.44 158.459 19.6858C158.544 19.9317 158.679 20.1571 158.856 20.3476C159.033 20.5381 159.248 20.6895 159.487 20.7921C159.726 20.8947 159.984 20.9462 160.244 20.9433C160.578 20.9833 160.915 20.9233 161.215 20.7708C161.514 20.6183 161.761 20.3803 161.925 20.087L163.266 20.0871ZM158.363 17.8108H161.931C161.948 17.5738 161.916 17.3357 161.836 17.1118C161.756 16.888 161.63 16.6833 161.467 16.511C161.303 16.3387 161.105 16.2025 160.885 16.1113C160.666 16.02 160.43 15.9757 160.192 15.9811C159.951 15.9781 159.712 16.0234 159.488 16.1143C159.265 16.2051 159.062 16.3398 158.892 16.5103C158.721 16.6809 158.587 16.8838 158.496 17.1071C158.405 17.3305 158.36 17.5698 158.363 17.8108H158.363Z" fill="white"/>
</svg>
