<svg class="h-8 w-8 lg:h-12 lg:w-12 mb-4" viewBox="0 0 48 48" fill="none" xmlns="http://www.w3.org/2000/svg">
            <path d="M0 24C0 10.7452 10.7452 0 24 0V0C37.2548 0 48 10.7452 48 24V24C48 37.2548 37.2548 48 24 48V48C10.7452 48 0 37.2548 0 24V24Z" fill="white" fill-opacity="0.2"></path>
            <path d="M14.625 34.6562H33.5742C36.0586 34.6562 37.5117 33.1914 37.5117 30.543V17.5703C37.5117 14.9102 36.0469 13.457 33.375 13.457H14.4375C11.9531 13.457 10.4883 14.9102 10.4883 17.5703V30.543C10.4883 33.2031 11.9531 34.6562 14.625 34.6562ZM22.8047 24.168L14.8594 16.3047H33.1641L25.2187 24.168C24.75 24.625 24.3984 24.8125 24.0117 24.8125C23.625 24.8125 23.2734 24.6133 22.8047 24.168ZM13.2773 18.2031L19.0898 23.9219L13.2773 29.6992V18.2031ZM28.9219 23.9219L34.7227 18.2148V29.6758L28.9219 23.9219ZM14.7422 31.8086C14.6836 31.7969 14.707 31.8086 14.6602 31.7969L20.8477 25.6445L21.293 26.0898C22.1836 26.957 23.0625 27.3555 24.0117 27.3555C24.9609 27.3555 25.8398 26.957 26.7187 26.0898L27.1758 25.6445L33.3633 31.7969C33.3281 31.7969 33.293 31.8086 33.2578 31.8086H14.7422Z" fill="white"></path>
          </svg>