<svg class="h-8 w-8 lg:h-12 lg:w-12 mb-4" viewBox="0 0 48 48" fill="none" xmlns="http://www.w3.org/2000/svg">
            <path d="M0 24C0 10.7452 10.7452 0 24 0V0C37.2548 0 48 10.7452 48 24V24C48 37.2548 37.2548 48 24 48V48C10.7452 48 0 37.2548 0 24V24Z" fill="black" fill-opacity="0.05"></path>
            <path d="M12.311 32.6338L14.1016 34.4336C15.0664 35.3984 16.2539 35.3335 17.2559 34.2202L27.3218 23.0874C27.6001 23.1523 27.8877 23.1431 28.2217 23.0688L29.0195 22.9111L29.437 23.3379L29.3906 23.7832C29.335 24.3027 29.5298 24.7666 30.0493 25.2769L30.7822 26.0005C31.3853 26.5942 32.1553 26.6221 32.7212 26.0562L35.5508 23.2173C36.126 22.6421 36.0981 21.8813 35.5044 21.2876L34.7715 20.5454C34.2705 20.0352 33.8066 19.8403 33.2871 19.8867L32.8325 19.9331L32.4243 19.5342L32.6099 18.6992C32.7676 17.9478 32.582 17.4189 31.8398 16.6768L29.8916 14.7378C26.6074 11.4536 21.9502 11.4072 18.9907 14.3667C18.5176 14.8306 18.4897 15.4707 18.7402 15.9346C19.0186 16.417 19.6123 16.7417 20.373 16.5469C21.7646 16.1943 23.0728 16.2129 24.251 16.9272L23.7778 18.1147C23.6108 18.5415 23.5552 18.9126 23.6108 19.2651L12.5059 29.4795C11.4204 30.4722 11.3462 31.6597 12.311 32.6338ZM21.2266 14.8584C23.416 13.5132 26.2549 13.9399 28.1846 15.8789L30.3926 18.0684C30.6245 18.3003 30.6616 18.4951 30.606 18.8198L30.3462 20.1743L31.9419 21.7607L32.8696 21.7144C33.0645 21.7144 33.1294 21.7329 33.2778 21.8721L33.6118 22.2061L31.6729 24.145L31.3389 23.811C31.1997 23.6719 31.1719 23.5977 31.1812 23.4028L31.2275 22.4844L29.6411 20.8887L28.2588 21.1113C27.9434 21.167 27.7671 21.1392 27.5352 20.9072L25.9209 19.293C25.6797 19.061 25.6147 18.8569 25.7446 18.5322L26.5889 16.5283C25.0859 15.0439 23.1377 14.5151 21.2822 14.979C21.1802 15.0068 21.1338 14.9233 21.2266 14.8584ZM15.1406 32.5039L14.2314 31.5854C13.9438 31.2979 13.9995 31.0845 14.2593 30.8525L24.7612 20.9072L25.7261 21.8813L15.8828 32.4854C15.6509 32.7358 15.4375 32.7915 15.1406 32.5039Z" fill="black"></path>
          </svg>