<svg width="80" height="80" viewBox="0 0 80 80" fill="none" xmlns="http://www.w3.org/2000/svg">
<rect width="80" height="80" rx="20" fill="url(#paint0_linear_1339_5495)"/>
<path d="M37.2904 45.0666C37.2904 46.3921 38.3649 47.4666 39.6904 47.4666C41.0159 47.4666 42.0904 46.3921 42.0904 45.0666V38.9332H48.2238C49.5492 38.9332 50.6238 37.8587 50.6238 36.5332C50.6238 35.2078 49.5492 34.1332 48.2238 34.1332H42.0904V28.5332C42.0904 27.2078 41.0159 26.1332 39.6904 26.1332C38.3649 26.1332 37.2904 27.2078 37.2904 28.5332V34.1332H31.6904C30.3649 34.1332 29.2904 35.2078 29.2904 36.5332C29.2904 37.8587 30.3649 38.9332 31.6904 38.9332H37.2904V45.0666Z" fill="white"/>
<path fill-rule="evenodd" clip-rule="evenodd" d="M13.5382 49.5105L22.7694 17.2014C23.4236 14.9118 25.5163 13.3333 27.8975 13.3333H51.8516C54.2329 13.3333 56.3256 14.9118 56.9798 17.2014L66.211 49.5106C66.4284 50.2717 66.4737 51.0717 66.3436 51.8525L64.6176 62.2099C64.1891 64.7816 61.964 66.6666 59.3568 66.6666H20.3929C17.7858 66.6666 15.5608 64.7818 15.1321 62.2102L13.4056 51.8526C13.2754 51.0717 13.3207 50.2717 13.5382 49.5105ZM16.8459 47.2673C16.3592 48.9708 17.6383 50.6666 19.41 50.6666H26.5962C28.0797 50.6666 29.278 51.8773 29.2627 53.3607L29.2358 55.9724C29.2205 57.4559 30.4188 58.6666 31.9023 58.6666H47.9021C49.3803 58.6666 50.5764 57.4643 50.5688 55.9862L50.5552 53.347C50.5476 51.8689 51.7437 50.6666 53.2218 50.6666H60.3394C62.1111 50.6666 63.3902 48.9708 62.9035 47.2673L54.5225 17.934C54.1954 16.7892 53.1491 15.9999 51.9585 15.9999H27.7909C26.6003 15.9999 25.554 16.7892 25.2269 17.934L16.8459 47.2673Z" fill="white"/>
<defs>
<linearGradient id="paint0_linear_1339_5495" x1="40" y1="0" x2="40" y2="80" gradientUnits="userSpaceOnUse">
<stop stop-color="#14B4F0"/>
<stop offset="1" stop-color="#1E64DC"/>
</linearGradient>
</defs>
</svg>
