<svg class="h-8 w-8 lg:h-12 lg:w-12 mb-4" viewBox="0 0 48 48" fill="none" xmlns="http://www.w3.org/2000/svg">
            <path d="M0 24C0 10.7452 10.7452 0 24 0V0C37.2548 0 48 10.7452 48 24V24C48 37.2548 37.2548 48 24 48V48C10.7452 48 0 37.2548 0 24V24Z" fill="white" fill-opacity="0.2"></path>
            <path d="M10.5977 28.6562C10.5977 33.0859 13.3867 36.6367 17.2305 36.6367H21.0742C22.7031 37.4336 24.5898 37.8789 26.6172 37.8789H28.2812C29.8984 37.8789 31.2461 37.7734 32.1133 37.5508C33.9883 37.0937 35.1953 35.6992 35.1953 34.0117C35.1953 33.7773 35.1719 33.5664 35.1016 33.3437C35.9102 32.6641 36.3672 31.6914 36.3672 30.6484C36.3672 30.1914 36.2852 29.7461 36.1328 29.3711C36.6602 28.7617 36.9648 27.918 36.9648 27.0391C36.9648 26.4531 36.8359 25.9023 36.6016 25.4453C36.9297 24.8945 37.1172 24.2031 37.1172 23.4297C37.1172 21.3789 35.582 19.8203 33.543 19.8203H29.3008C29.1133 19.8203 28.9844 19.7383 29.0078 19.5391C29.1719 18.4258 30.918 15.625 30.918 13.2461C30.918 11.3008 29.5234 9.85938 27.625 9.85938C26.2539 9.85938 25.293 10.5742 24.4258 12.2383C22.9141 15.1562 21.0156 17.6875 18.6719 20.6172H16.7852C13.1523 20.6172 10.5977 24.1562 10.5977 28.6562ZM18.6484 28.5156C18.6484 26.0898 19.1875 24.5547 20.7695 22.4219C22.5508 20.0312 25.0469 17.125 26.8398 13.5508C27.0977 13.0234 27.2969 12.8828 27.5898 12.8828C27.9297 12.8828 28.1523 13.1406 28.1523 13.5625C28.1523 15.0508 26.1836 17.9922 26.1836 19.9961C26.1836 21.543 27.3906 22.5977 29.1484 22.5977H33.4023C33.9531 22.5977 34.3516 22.9844 34.3516 23.5234C34.3516 23.8867 34.2227 24.1445 33.9062 24.4727C33.4492 24.9414 33.3906 25.6914 33.8008 26.125C34.0703 26.4883 34.1875 26.7344 34.1875 27.0391C34.1875 27.4023 34 27.7187 33.6367 27.9883C33.0742 28.3867 32.8984 29.1016 33.2031 29.7344C33.4023 30.1094 33.4961 30.3203 33.4961 30.6016C33.4961 31.0586 33.2031 31.4102 32.6406 31.7266C32.0898 32.0312 31.9258 32.7227 32.1484 33.2617C32.3242 33.6953 32.3594 33.7891 32.3477 33.9883C32.3477 34.3867 32.0547 34.7148 31.375 34.8789C30.6953 35.043 29.5937 35.125 27.9648 35.1016L26.6289 35.0898C21.8711 35.043 18.6484 32.4062 18.6484 28.5156ZM13.2812 28.6562C13.2812 25.7734 14.6406 23.5234 16.3164 23.3359C16.5391 23.3242 16.7617 23.3242 16.9844 23.3125C16.2227 24.9062 15.8828 26.5703 15.8828 28.5625C15.8828 30.6484 16.5625 32.5352 17.8398 34.082C17.5469 34.082 17.2187 34.0703 16.9141 34.0586C14.8984 33.8711 13.2812 31.5742 13.2812 28.6562Z" fill="white"></path>
          </svg>