<svg xmlns="http://www.w3.org/2000/svg" xmlns:xlink="http://www.w3.org/1999/xlink" viewBox="0 0 234 41"><defs><path id="a" d="M.194.132h39.765v40.561H.194z"/></defs><g fill="none" fill-rule="evenodd"><path fill="#000" d="M31.098 39.136V17.504h-.28L20.564 34.912h-2.241L8.068 17.504h-.279v21.632H0V1.864h7.676l11.991 20.434h.113L31.715 1.864h7.452v37.272zm30.638-7.192v-2.67c-1.189-1.022-3.567-1.987-6.398-1.987-4.473 0-6.115 1.76-6.115 3.862 0 2.33 1.869 3.863 5.039 3.863 3.964 0 6.625-2.272 7.474-3.068M43.618 14.22c2.605-1.307 7.588-2.954 12.909-2.954 6.342 0 12.74 2.159 12.74 8.408v14.827c0 1.25.113 3.295.793 5.397h-7.474c-.283-.852-.51-2.159-.68-3.181-2.038 1.987-4.473 3.862-9.285 3.862-6.68 0-10.928-4.033-10.928-9.43 0-5.17 4.416-9.202 12.117-9.202 2.943 0 5.888.682 7.926 2.272v-2.784c0-2.898-2.49-4.205-5.83-4.205-3.511 0-7.928 1.535-9.965 2.614l-2.323-5.624m50.483 6.76c-2.265-2.214-4.869-3.294-7.077-3.294-4.077 0-7.361 3.182-7.361 8.237 0 5.056 3.51 8.465 7.644 8.465 2.775 0 5.322-1.705 7.417-3.75l4.643 4.658c-1.19 1.42-5.832 5.454-12.91 5.454-7.983 0-14.833-5.907-14.833-14.827 0-8.862 6.623-14.657 14.833-14.657 4.247 0 8.72 1.478 12.343 4.715l-4.699 5m30.124-8.805l4.983 17.724h.339l4.303-17.724h7.757l-8.776 27.722h-7.19l-4.814-16.985h-.34l-4.868 16.985h-7.134l-8.777-27.722h7.928l4.416 17.724h.339l4.983-17.724zm31.281 22.325c4.7 0 7.418-3.977 7.418-8.579 0-4.543-2.718-8.35-7.418-8.35-4.585 0-7.247 3.807-7.247 8.35 0 4.602 2.662 8.58 7.247 8.58m0-23.237c9.003 0 15.117 6.42 15.117 14.657 0 8.239-6.114 14.827-15.117 14.827-8.945 0-15.004-6.588-15.004-14.827 0-8.237 6.059-14.657 15.004-14.657m24.989 10.795v17.838h-7.587V20.015c0-2.33-.227-4.772-.793-7.84h6.907a40.91 40.91 0 01.567 4.148c1.698-2.84 3.68-5.057 7.247-5.057 1.415 0 3.284.398 4.247 1.137l-2.095 6.93c-.85-.34-2.718-.795-3.737-.795-1.981 0-3.228 1.533-4.756 3.522"/><g transform="translate(193.968)"><path fill="#000" d="M.194 39.898h7.618V.132H.194zm18.391-13.975c0 5.055 2.842 8.407 6.424 8.407 3.298 0 5.742-2.045 6.709-3.067V20.81c-1.99-1.932-4.434-3.124-6.709-3.124-3.639 0-6.424 3.182-6.424 8.237m14.213 13.975c-.17-.966-.285-2.33-.342-3.295-1.705 1.932-4.719 4.09-8.584 4.09-7.39 0-13.474-5.85-13.474-14.77 0-8.862 6.14-14.657 13.474-14.657 2.729 0 5.571 1.307 7.846 3.41V.13h7.618v31.871c0 2.273 0 4.658.625 7.896h-7.163"/></g></g></svg>