<svg class="h-8 w-8 lg:h-12 lg:w-12 mb-4" viewBox="0 0 48 48" fill="none" xmlns="http://www.w3.org/2000/svg">
            <path d="M0 24C0 10.7452 10.7452 0 24 0V0C37.2548 0 48 10.7452 48 24V24C48 37.2548 37.2548 48 24 48V48C10.7452 48 0 37.2548 0 24V24Z" fill="white" fill-opacity="0.2"></path>
            <path d="M27.3125 16.082C27.5 16.082 27.6172 15.9531 27.6406 15.7891C27.957 13.8672 27.957 13.8437 29.9375 13.4805C30.1367 13.4453 30.2539 13.3281 30.2539 13.1523C30.2539 12.9766 30.1367 12.8594 29.9609 12.8242C27.9453 12.4141 27.9687 12.4023 27.6406 10.5273C27.6172 10.3398 27.5 10.2227 27.3125 10.2227C27.1367 10.2227 27.0195 10.3398 26.9961 10.5156C26.6562 12.4492 26.6914 12.4844 24.6875 12.8242C24.5117 12.8477 24.3828 12.9766 24.3828 13.1523C24.3828 13.3281 24.5 13.4453 24.6758 13.4805C26.6914 13.8789 26.668 13.8906 26.9961 15.7891C27.0195 15.9531 27.1367 16.082 27.3125 16.082ZM23.8555 36.8008C28.4609 36.8008 32.3867 34.2812 34.1797 30.2148C34.5547 29.3594 34.4375 28.7031 34.0508 28.3281C33.6641 27.9766 33.0312 27.8945 32.3398 28.2109C31.4609 28.5859 30.3477 28.7969 29.1055 28.7969C23.9609 28.7969 20.6797 25.6562 20.6797 20.6289C20.6797 19.2461 20.9727 17.875 21.3711 17.0078C21.7109 16.2227 21.6641 15.625 21.3125 15.2266C20.9258 14.793 20.2578 14.7227 19.4492 15.0391C15.3125 16.7031 12.5586 20.875 12.5586 25.5859C12.5586 31.9844 17.2695 36.8008 23.8555 36.8008ZM32.9844 24.4258C33.2656 24.4258 33.4766 24.2266 33.5117 23.9219C33.8867 20.8516 34.0039 20.7578 37.1445 20.2773C37.4844 20.2305 37.6719 20.043 37.6719 19.75C37.6719 19.4687 37.4844 19.2812 37.2148 19.2227C34.0156 18.5781 33.8867 18.625 33.5117 15.5781C33.4766 15.2734 33.2656 15.0742 32.9844 15.0742C32.7031 15.0742 32.4922 15.2734 32.457 15.5547C32.0703 18.6953 31.9766 18.7891 28.7656 19.2227C28.4961 19.2578 28.2969 19.4687 28.2969 19.75C28.2969 20.0312 28.4961 20.2187 28.7656 20.2773C31.9883 20.9219 32.0586 20.8867 32.457 23.957C32.4922 24.2266 32.7148 24.4258 32.9844 24.4258ZM23.8672 33.8359C19.0039 33.8359 15.5234 30.2617 15.5234 25.5039C15.5234 23.1016 16.5195 20.7812 18.2187 19.2109C18.0664 19.7734 17.9727 20.5234 17.9727 21.2617C17.9727 27.4492 22.0977 31.4922 28.4258 31.4922C29.0234 31.4922 29.5859 31.4219 29.8906 31.3281C28.4727 32.9102 26.2461 33.8359 23.8672 33.8359Z" fill="white"></path>
          </svg>