<svg class="h-8 w-8 lg:h-12 lg:w-12 mb-4" viewBox="0 0 48 48" fill="none" xmlns="http://www.w3.org/2000/svg">
            <path d="M0 24C0 10.7452 10.7452 0 24 0V0C37.2548 0 48 10.7452 48 24V24C48 37.2548 37.2548 48 24 48V48C10.7452 48 0 37.2548 0 24V24Z" fill="white" fill-opacity="0.3"></path>
            <path d="M13.7422 26.4062C13.7422 30.6719 16.168 32.5234 23.0352 36.1094C23.3398 36.2617 23.6797 36.3672 23.9141 36.3672C24.1484 36.3672 24.4883 36.2617 24.8047 36.1094C31.6602 32.5352 34.0977 30.6719 34.0977 26.4062V17.7344C34.0977 16.0586 33.5352 15.3789 32.082 14.7578C30.9219 14.2656 26.6562 12.8359 25.5664 12.4844C25.0508 12.3203 24.418 12.2148 23.9141 12.2148C23.4102 12.2148 22.7773 12.3437 22.2617 12.4844C21.1836 12.7891 16.9062 14.2773 15.7578 14.7578C14.293 15.3789 13.7422 16.0586 13.7422 17.7344V26.4062ZM24.043 33.2734V15.0039C24.2422 15.0156 24.4297 15.0625 24.7812 15.1797C26 15.6367 29.1875 16.7383 30.8633 17.3594C31.1914 17.4883 31.2969 17.6758 31.2969 18.1211V25.9609C31.2969 29.1367 29.5977 30.0273 24.5 33.0625C24.2773 33.1914 24.1602 33.25 24.043 33.2734Z" fill="white"></path>
          </svg>