<svg class="h-8 w-8 lg:h-12 lg:w-12 mb-4" viewBox="0 0 48 48" fill="none" xmlns="http://www.w3.org/2000/svg">
            <path d="M0 24C0 10.7452 10.7452 0 24 0V0C37.2548 0 48 10.7452 48 24V24C48 37.2548 37.2548 48 24 48V48C10.7452 48 0 37.2548 0 24V24Z" fill="black" fill-opacity="0.1"></path>
            <path d="M14.8633 33.9531H18.5312V34.9727C18.5312 35.6289 19.0234 36.1211 19.6914 36.1211C20.3477 36.1211 20.8398 35.6289 20.8398 34.9727V33.9531H22.4805V34.9727C22.4805 35.6289 22.9844 36.1211 23.6406 36.1211C24.2969 36.1211 24.8008 35.6289 24.8008 34.9727V33.9531H26.4531V34.9727C26.4531 35.6289 26.9453 36.1211 27.6016 36.1211C28.2695 36.1211 28.7617 35.6289 28.7617 34.9727V33.9531H32.418C33.0977 33.9531 33.543 33.5078 33.543 32.8281V29.1484H34.5742C35.2305 29.1484 35.7227 28.6445 35.7227 27.9883C35.7227 27.332 35.2305 26.8281 34.5742 26.8281H33.543V25.1875H34.5742C35.2305 25.1875 35.7227 24.6953 35.7227 24.0391C35.7227 23.3828 35.2305 22.8789 34.5742 22.8789H33.543V21.2383H34.5742C35.2305 21.2383 35.7227 20.7461 35.7227 20.0898C35.7227 19.4219 35.2305 18.9297 34.5742 18.9297H33.543V15.2734C33.543 14.6055 33.0977 14.1484 32.418 14.1484H28.75V13.1289C28.75 12.4609 28.2461 11.9687 27.5898 11.9687C26.9336 11.9687 26.4297 12.4609 26.4297 13.1289V14.1484H24.8008V13.1289C24.8008 12.4609 24.2969 11.9687 23.6406 11.9687C22.9844 11.9687 22.4805 12.4609 22.4805 13.1289V14.1484H20.8398V13.1289C20.8398 12.4609 20.3477 11.9687 19.6914 11.9687C19.0234 11.9687 18.5312 12.4609 18.5312 13.1289V14.1484H14.8633C14.1836 14.1484 13.7383 14.6055 13.7383 15.2734V18.9414H12.6484C11.9805 18.9414 11.4883 19.4336 11.4883 20.0898C11.4883 20.7461 11.9805 21.25 12.6484 21.25H13.7383V22.8906H12.6484C11.9805 22.8906 11.4883 23.3828 11.4883 24.0391C11.4883 24.707 11.9805 25.1992 12.6484 25.1992H13.7383V26.8398H12.6484C11.9805 26.8398 11.4883 27.332 11.4883 28C11.4883 28.6562 11.9805 29.1484 12.6484 29.1484H13.7383V32.8281C13.7383 33.5078 14.1836 33.9531 14.8633 33.9531ZM17.0898 30.9297C16.8672 30.9297 16.7617 30.8242 16.7617 30.6133V17.5C16.7617 17.2773 16.8672 17.1719 17.0898 17.1719H30.1914C30.4141 17.1719 30.5195 17.2773 30.5195 17.5V30.6133C30.5195 30.8242 30.4141 30.9297 30.1914 30.9297H17.0898ZM19.6445 28.8906H27.6367C28.1875 28.8906 28.4922 28.5859 28.4922 28.0352V20.0664C28.4922 19.5039 28.1875 19.1992 27.6367 19.1992H19.6445C19.0937 19.1992 18.7891 19.5039 18.7891 20.0664V28.0352C18.7891 28.5859 19.0937 28.8906 19.6445 28.8906ZM21.0625 26.8516C20.9219 26.8516 20.8281 26.7578 20.8281 26.6172V21.4844C20.8281 21.332 20.9219 21.2383 21.0625 21.2383H26.2187C26.3594 21.2383 26.4531 21.332 26.4531 21.4844V26.6172C26.4531 26.7578 26.3594 26.8516 26.2187 26.8516H21.0625Z" fill="black"></path>
          </svg>