<svg width="590" height="100" xmlns="http://www.w3.org/2000/svg"><path d="M137.5 88.75c0 3.03-.68 6.27-3.01 8.75H195V67.12c-4.2 1.93-9.38 2.88-14.38 2.88H167.5V60h6.88c3.74 0 7.06.36 10.62 1.88V35.62c-3.56 1.52-6.88 1.88-10.62 1.88h-6.88V26.25h13.12c5 0 10.18.95 14.38 2.87V0h-60.62c2.33 2.02 3.12 5.72 3.12 8.75v80zM85 37.5v-10h1.268c3.424 0 7.397.55 9.982 1.93V0H53.776v97.5h34.349C85.795 95.48 85 91.78 85 88.75v-27.5h16.25v27.5c0 3.03-.79 6.73-3.125 8.75H132.5V0h-31.25v37.5H85zm-74.861-10H17.5v61.25c0 3.03-.794 6.73-3.125 8.75H48.75V0H0v29.43c2.741-1.38 6.715-1.93 10.139-1.93zm517.33 10h-37.41c-1.91 0-4.11-.18-6.31-.88v24.26c2.2-.69 4.4-.88 6.31-.88h9.94v7.5c-1.23 1.1-3.91 1.71-6.65 1.71-11.37 0-19.73-8.97-19.73-19.83 0-10.88 8.13-20.63 19.5-20.63 6.88 0 14.64 2.25 23.13 6.26V0h-25c-26.99 0-48.5 20.89-48.5 49.13 0 27.65 21.66 50.87 49.75 50.87 15.48 0 29.9-6.3 37.43-14-1.5-2.76-2.46-5.5-2.46-8.81V37.5zm48.15-11.25c5 0 10.18.95 14.38 2.87V0h-60.62c2.33 2.02 3.12 5.72 3.12 8.75v80c0 3.03-.68 6.27-3.01 8.75h60.51V67.12c-4.2 1.93-9.38 2.88-14.38 2.88h-13.12V60h6.88c3.74 0 7.06.36 10.62 1.88V35.62c-3.56 1.52-6.88 1.88-10.62 1.88h-6.88V26.25h13.12zm-145 27.25c5.21-5.75 8.38-13.29 8.38-20.96 0-22.46-16.72-32.53-34.67-32.53L365.639 0c2.32 2.02 3.12 5.69 3.12 8.71l-.01 80.04c0 3.01-.81 6.29-3.13 8.75h37.24c-2.33-2.46-2.86-5.9-2.86-8.75V68.91c10.68 2.03 17.79 11.94 17.79 19.88 0 3.01-.71 6.25-3.03 8.71h37.14c-2.33-2.46-2.93-6.03-3.15-9.04-1.25-17.21-7.17-29.35-18.13-34.96zm-30.62-9.62V26.12c5 0 11.38 1.38 11.38 8.88 0 7.5-6.38 8.88-11.38 8.88zm-136.25 9.87l-10-27.5h15l10-26.25h-70c2.19 2.21 4.24 4.68 5.75 7.57l38.72 89.93h21.15l31.88-75v66.25c-.02 3.11-.79 6.73-3.13 8.75h60.63V67.12c-4.15 1.93-9.37 4.13-14.37 4.13h-13.13V60h6.87c3.76 0 7.07.36 10.63 1.88V35.62c-3.56 1.52-6.87 1.88-10.63 1.88h-6.87v-10h13.13c5 0 10.22.95 14.37 2.88V0h-80l-20 53.75z" fill="#000" fill-rule="nonzero"/></svg>